<svg id="visual" viewBox="0 0 900 300" width="900" height="300" xmlns="http://www.w3.org/2000/svg" xmlns:xlink="http://www.w3.org/1999/xlink" version="1.1"><rect x="0" y="0" width="900" height="300" fill="#ff0066"></rect><path d="M0 123L25 121.7C50 120.3 100 117.7 150 106.5C200 95.3 250 75.7 300 80.3C350 85 400 114 450 130.7C500 147.3 550 151.7 600 148.5C650 145.3 700 134.7 750 132.7C800 130.7 850 137.3 875 140.7L900 144L900 301L875 301C850 301 800 301 750 301C700 301 650 301 600 301C550 301 500 301 450 301C400 301 350 301 300 301C250 301 200 301 150 301C100 301 50 301 25 301L0 301Z" fill="#5344b7"></path><path d="M0 153L25 152C50 151 100 149 150 145.7C200 142.3 250 137.7 300 143.7C350 149.7 400 166.3 450 168.2C500 170 550 157 600 146.2C650 135.3 700 126.7 750 125.5C800 124.3 850 130.7 875 133.8L900 137L900 301L875 301C850 301 800 301 750 301C700 301 650 301 600 301C550 301 500 301 450 301C400 301 350 301 300 301C250 301 200 301 150 301C100 301 50 301 25 301L0 301Z" fill="#4f3aa1"></path><path d="M0 218L25 213C50 208 100 198 150 194.7C200 191.3 250 194.7 300 187.8C350 181 400 164 450 165.2C500 166.3 550 185.7 600 187C650 188.3 700 171.7 750 161.8C800 152 850 149 875 147.5L900 146L900 301L875 301C850 301 800 301 750 301C700 301 650 301 600 301C550 301 500 301 450 301C400 301 350 301 300 301C250 301 200 301 150 301C100 301 50 301 25 301L0 301Z" fill="#49308c"></path><path d="M0 227L25 221.3C50 215.7 100 204.3 150 203.2C200 202 250 211 300 219.2C350 227.3 400 234.7 450 231.7C500 228.7 550 215.3 600 207.5C650 199.7 700 197.3 750 203.7C800 210 850 225 875 232.5L900 240L900 301L875 301C850 301 800 301 750 301C700 301 650 301 600 301C550 301 500 301 450 301C400 301 350 301 300 301C250 301 200 301 150 301C100 301 50 301 25 301L0 301Z" fill="#422778"></path><path d="M0 255L25 256C50 257 100 259 150 259.2C200 259.3 250 257.7 300 252.3C350 247 400 238 450 240.5C500 243 550 257 600 260.8C650 264.7 700 258.3 750 258.3C800 258.3 850 264.7 875 267.8L900 271L900 301L875 301C850 301 800 301 750 301C700 301 650 301 600 301C550 301 500 301 450 301C400 301 350 301 300 301C250 301 200 301 150 301C100 301 50 301 25 301L0 301Z" fill="#3a1e64"></path></svg>