<svg id="visual" viewBox="0 0 900 300" width="900" height="300" xmlns="http://www.w3.org/2000/svg" xmlns:xlink="http://www.w3.org/1999/xlink" version="1.1"><rect x="0" y="0" width="900" height="300" fill="#202731"></rect><path d="M0 92L21.5 97.7C43 103.3 86 114.7 128.8 114.5C171.7 114.3 214.3 102.7 257.2 98.3C300 94 343 97 385.8 102.3C428.7 107.7 471.3 115.3 514.2 112.7C557 110 600 97 642.8 93.8C685.7 90.7 728.3 97.3 771.2 98.8C814 100.3 857 96.7 878.5 94.8L900 93L900 0L878.5 0C857 0 814 0 771.2 0C728.3 0 685.7 0 642.8 0C600 0 557 0 514.2 0C471.3 0 428.7 0 385.8 0C343 0 300 0 257.2 0C214.3 0 171.7 0 128.8 0C86 0 43 0 21.5 0L0 0Z" fill="#fa7268"></path><path d="M0 69L21.5 73.2C43 77.3 86 85.7 128.8 87.7C171.7 89.7 214.3 85.3 257.2 84.5C300 83.7 343 86.3 385.8 87.3C428.7 88.3 471.3 87.7 514.2 88.7C557 89.7 600 92.3 642.8 92.7C685.7 93 728.3 91 771.2 86.3C814 81.7 857 74.3 878.5 70.7L900 67L900 0L878.5 0C857 0 814 0 771.2 0C728.3 0 685.7 0 642.8 0C600 0 557 0 514.2 0C471.3 0 428.7 0 385.8 0C343 0 300 0 257.2 0C214.3 0 171.7 0 128.8 0C86 0 43 0 21.5 0L0 0Z" fill="#f3665b"></path><path d="M0 67L21.5 64.2C43 61.3 86 55.7 128.8 54.5C171.7 53.3 214.3 56.7 257.2 56.2C300 55.7 343 51.3 385.8 54.5C428.7 57.7 471.3 68.3 514.2 72.2C557 76 600 73 642.8 71.8C685.7 70.7 728.3 71.3 771.2 71C814 70.7 857 69.3 878.5 68.7L900 68L900 0L878.5 0C857 0 814 0 771.2 0C728.3 0 685.7 0 642.8 0C600 0 557 0 514.2 0C471.3 0 428.7 0 385.8 0C343 0 300 0 257.2 0C214.3 0 171.7 0 128.8 0C86 0 43 0 21.5 0L0 0Z" fill="#ec594d"></path><path d="M0 49L21.5 49.8C43 50.7 86 52.3 128.8 53.8C171.7 55.3 214.3 56.7 257.2 54.2C300 51.7 343 45.3 385.8 43.7C428.7 42 471.3 45 514.2 46.2C557 47.3 600 46.7 642.8 45.5C685.7 44.3 728.3 42.7 771.2 44.8C814 47 857 53 878.5 56L900 59L900 0L878.5 0C857 0 814 0 771.2 0C728.3 0 685.7 0 642.8 0C600 0 557 0 514.2 0C471.3 0 428.7 0 385.8 0C343 0 300 0 257.2 0C214.3 0 171.7 0 128.8 0C86 0 43 0 21.5 0L0 0Z" fill="#e54c3f"></path><path d="M0 13L21.5 13.7C43 14.3 86 15.7 128.8 18.8C171.7 22 214.3 27 257.2 26.7C300 26.3 343 20.7 385.8 19.3C428.7 18 471.3 21 514.2 24C557 27 600 30 642.8 28C685.7 26 728.3 19 771.2 15.8C814 12.7 857 13.3 878.5 13.7L900 14L900 0L878.5 0C857 0 814 0 771.2 0C728.3 0 685.7 0 642.8 0C600 0 557 0 514.2 0C471.3 0 428.7 0 385.8 0C343 0 300 0 257.2 0C214.3 0 171.7 0 128.8 0C86 0 43 0 21.5 0L0 0Z" fill="#dd3f31"></path></svg>